<svg width="396" height="455" viewBox="0 0 396 455" fill="none" xmlns="http://www.w3.org/2000/svg">
<rect width="396" height="455" fill="white"/>
<rect x="118" y="27" width="76" height="57" fill="#7BCAF1"/>
<rect x="118" y="109" width="76" height="57" fill="#7BCAF1"/>
<rect x="118" y="191" width="76" height="57" fill="#7BCAF1"/>
<rect x="118" y="273" width="76" height="57" fill="#7BCAF1"/>
<rect x="118" y="355" width="76" height="57" fill="#7BCAF1"/>
<rect x="118" y="89" width="65" height="5" fill="#D0DCE7"/>
<rect x="118" y="171" width="65" height="5" fill="#D0DCE7"/>
<rect x="118" y="253" width="65" height="5" fill="#D0DCE7"/>
<rect x="118" y="335" width="65" height="5" fill="#D0DCE7"/>
<rect x="118" y="417" width="65" height="5" fill="#D0DCE7"/>
<rect x="201" y="89" width="65" height="5" fill="#D0DCE7"/>
<rect x="201" y="171" width="65" height="5" fill="#D0DCE7"/>
<rect x="201" y="253" width="65" height="5" fill="#D0DCE7"/>
<rect x="201" y="335" width="65" height="5" fill="#D0DCE7"/>
<rect x="201" y="417" width="65" height="5" fill="#D0DCE7"/>
<rect x="285" y="89" width="65" height="5" fill="#D0DCE7"/>
<rect x="285" y="171" width="65" height="5" fill="#D0DCE7"/>
<rect x="285" y="253" width="65" height="5" fill="#D0DCE7"/>
<rect x="285" y="335" width="65" height="5" fill="#D0DCE7"/>
<rect x="285" y="417" width="65" height="5" fill="#D0DCE7"/>
<rect x="118" y="97" width="18" height="5" fill="#D0DCE7"/>
<rect x="118" y="179" width="18" height="5" fill="#D0DCE7"/>
<rect x="118" y="261" width="18" height="5" fill="#D0DCE7"/>
<rect x="118" y="343" width="18" height="5" fill="#D0DCE7"/>
<rect x="118" y="425" width="18" height="5" fill="#D0DCE7"/>
<rect x="201" y="97" width="18" height="5" fill="#D0DCE7"/>
<rect x="201" y="179" width="18" height="5" fill="#D0DCE7"/>
<rect x="201" y="261" width="18" height="5" fill="#D0DCE7"/>
<rect x="201" y="343" width="18" height="5" fill="#D0DCE7"/>
<rect x="201" y="425" width="18" height="5" fill="#D0DCE7"/>
<rect x="285" y="97" width="18" height="5" fill="#D0DCE7"/>
<rect x="285" y="179" width="18" height="5" fill="#D0DCE7"/>
<rect x="285" y="261" width="18" height="5" fill="#D0DCE7"/>
<rect x="285" y="343" width="18" height="5" fill="#D0DCE7"/>
<rect x="285" y="425" width="18" height="5" fill="#D0DCE7"/>
<rect x="201" y="27" width="77" height="57" fill="#7BCAF1"/>
<rect x="201" y="109" width="77" height="57" fill="#7BCAF1"/>
<rect x="201" y="191" width="77" height="57" fill="#7BCAF1"/>
<rect x="201" y="273" width="77" height="57" fill="#7BCAF1"/>
<rect x="201" y="355" width="77" height="57" fill="#7BCAF1"/>
<rect x="285" y="27" width="76" height="57" fill="#7BCAF1"/>
<rect x="285" y="109" width="76" height="57" fill="#7BCAF1"/>
<rect x="285" y="191" width="76" height="57" fill="#7BCAF1"/>
<rect x="285" y="273" width="76" height="57" fill="#7BCAF1"/>
<rect x="285" y="355" width="76" height="57" fill="#7BCAF1"/>
<rect x="30" y="28" width="68" height="8" fill="#A9DEF9"/>
<rect x="30" y="43" width="42" height="5" fill="#D0DCE7"/>
<rect x="30" y="54" width="57" height="5" fill="#D0DCE7"/>
<rect x="30" y="65" width="38" height="5" fill="#D0DCE7"/>
<rect x="30" y="76" width="51" height="5" fill="#D0DCE7"/>
<rect x="30" y="87" width="56" height="5" fill="#D0DCE7"/>
<rect x="30" y="98" width="40" height="5" fill="#D0DCE7"/>
<rect x="30" y="109" width="45" height="5" fill="#D0DCE7"/>
<rect x="30" y="120" width="51" height="5" fill="#D0DCE7"/>
<rect x="30" y="131" width="55" height="5" fill="#D0DCE7"/>
<rect x="30" y="142" width="51" height="5" fill="#D0DCE7"/>
<rect x="30" y="153" width="41" height="5" fill="#D0DCE7"/>
<rect x="30" y="164" width="51" height="5" fill="#D0DCE7"/>
<rect x="30" y="175" width="30" height="5" fill="#D0DCE7"/>
</svg>
